<svg width="309" height="64" viewBox="0 0 309 64" fill="none" xmlns="http://www.w3.org/2000/svg">
<g clip-path="url(#clip0_1_2943)">
<path d="M44.4964 34.3859C44.4805 32.4282 45.2039 30.5365 46.5222 29.0891C47.8404 27.6416 49.6563 26.7449 51.607 26.5781H84.2324L73.6361 33.6365H55.8769C54.732 33.6411 53.6353 34.0979 52.8257 34.9075C52.0162 35.7171 51.5593 36.8138 51.5547 37.9587V55.6133L44.5835 63.9962L44.4964 34.3859Z" fill="white"/>
<path d="M42.0304 24.9221C40.2115 24.9657 38.4478 24.2964 37.1156 23.0573L13.5703 0L26.3799 2.50964L39.207 15.0927C40.0281 15.8985 41.1326 16.3499 42.2831 16.3499C43.4335 16.3499 44.538 15.8985 45.3591 15.0927L58.221 2.52707L70.9958 0L47.9733 22.6565C46.3485 24.1335 44.2261 24.9427 42.0304 24.9221Z" fill="white"/>
<path d="M32.6602 55.5938V37.9566C32.6602 36.8086 32.2054 35.7075 31.3953 34.8941C30.5853 34.0808 29.486 33.6216 28.338 33.617H10.5614L0 26.5586H31.9108C33.9269 26.5882 35.862 27.3572 37.3484 28.7197C38.0704 29.3344 38.6547 30.0946 39.0631 30.9504C39.4716 31.8063 39.6949 32.7387 39.7186 33.6867V63.9941L32.6602 55.5938Z" fill="white"/>
<path d="M143.758 16.0633H105.189V47.9567H143.758C145.23 48.055 146.708 47.854 148.101 47.3658C149.493 46.8775 150.773 46.1122 151.862 45.1159C152.817 44.0467 153.541 42.7926 153.991 41.4314C154.441 40.0703 154.606 38.6312 154.476 37.2036V27.165C154.476 23.3831 153.622 20.6818 151.862 18.9041C150.773 17.9079 149.493 17.1425 148.101 16.6543C146.708 16.166 145.23 15.965 143.758 16.0633ZM112.196 41.7349V22.2852H142.102C142.854 22.2324 143.609 22.3284 144.324 22.5676C145.038 22.8069 145.699 23.1847 146.267 23.6794C146.761 24.238 147.139 24.8894 147.379 25.5956C147.618 26.3018 147.714 27.0486 147.662 27.7924V36.2276C147.714 36.9714 147.618 37.7183 147.379 38.4245C147.139 39.1307 146.761 39.7821 146.267 40.3406C145.7 40.837 145.039 41.2159 144.324 41.4552C143.609 41.6945 142.854 41.7896 142.102 41.7349H112.196Z" fill="white"/>
<path d="M262.726 16.0571L241.69 31.9167L262.709 47.9505H252.13L235.608 35.35L220.864 47.9505H210.111L229.805 31.9167L210.163 16.0571H220.864L235.277 28.5356L251.938 16.1094L262.726 16.0571Z" fill="white"/>
<path d="M167.308 26.4482V28.9753H198.103V35.0402H167.308V37.5673C167.27 38.1291 167.344 38.6928 167.527 39.2255C167.71 39.7582 167.996 40.2491 168.371 40.6695C169.571 41.386 170.972 41.6919 172.362 41.5409H197.842L208.595 47.9544H169.852C168.584 48.0322 167.312 47.8531 166.114 47.4279C164.917 47.0026 163.817 46.34 162.881 45.4797C162.038 44.5349 161.389 43.4325 160.973 42.2361C160.558 41.0396 160.383 39.7728 160.459 38.5084V25.6117C160.383 24.3473 160.558 23.0805 160.973 21.884C161.389 20.6876 162.038 19.5852 162.881 18.6404C163.817 17.7801 164.917 17.1175 166.114 16.6922C167.312 16.267 168.584 16.0879 169.852 16.1656H208.7L198.051 22.5269H171.543C170.981 22.488 170.417 22.562 169.884 22.7446C169.351 22.9272 168.861 23.2146 168.441 23.59C168.06 23.9585 167.761 24.4041 167.566 24.8969C167.371 25.3898 167.283 25.9186 167.308 26.4482Z" fill="white"/>
<path d="M301.505 41.5409L312.258 47.9544H273.376C272.107 48.0322 270.836 47.8531 269.638 47.4279C268.44 47.0026 267.34 46.34 266.405 45.4797C265.561 44.5349 264.913 43.4325 264.497 42.2361C264.081 41.0396 263.906 39.7728 263.982 38.5084V25.6117C263.906 24.3473 264.081 23.0805 264.497 21.884C264.913 20.6876 265.561 19.5852 266.405 18.6404C267.34 17.7801 268.44 17.1175 269.638 16.6922C270.836 16.267 272.107 16.0879 273.376 16.1656H312.223L301.505 22.4223H274.997C274.435 22.3834 273.871 22.4574 273.338 22.64C272.805 22.8226 272.314 23.1101 271.894 23.4854C271.519 23.866 271.23 24.3229 271.046 24.825C270.863 25.3272 270.79 25.8629 270.831 26.3959V28.923H301.627V35.0402H270.901V37.5673C270.859 38.1294 270.932 38.6942 271.114 39.2274C271.297 39.7607 271.586 40.2513 271.964 40.6695C273.164 41.386 274.565 41.6919 275.955 41.5409H301.505Z" fill="white"/>
</g>
<defs>
<clipPath id="clip0_1_2943">
<rect width="309" height="64" fill="white"/>
</clipPath>
</defs>
</svg>
