<svg xmlns="http://www.w3.org/2000/svg" xmlns:xlink="http://www.w3.org/1999/xlink" width="177.487" height="51.125" viewBox="0 0 177.487 51.125">
  <defs>
    <clipPath id="clip-path">
      <rect id="Прямоугольник_5961" data-name="Прямоугольник 5961" width="50.58" height="50.58" rx="25.29" fill="none"/>
    </clipPath>
    <radialGradient id="radial-gradient" cx="0.5" cy="0.5" r="0.5" gradientUnits="objectBoundingBox">
      <stop offset="0" stop-color="#979797"/>
      <stop offset="1" stop-color="#777"/>
    </radialGradient>
    <filter id="Контур_10388" x="-18.303" y="11.338" width="69.9" height="60.086" filterUnits="userSpaceOnUse">
      <feOffset dy="3.041" input="SourceAlpha"/>
      <feGaussianBlur stdDeviation="3.041" result="blur"/>
      <feFlood flood-opacity="0.102"/>
      <feComposite operator="in" in2="blur"/>
      <feComposite in="SourceGraphic"/>
    </filter>
    <filter id="Контур_10389" x="-8.74" y="-15.4" width="79.012" height="71.457" filterUnits="userSpaceOnUse">
      <feOffset dy="3.041" input="SourceAlpha"/>
      <feGaussianBlur stdDeviation="3.041" result="blur-2"/>
      <feFlood flood-opacity="0.161"/>
      <feComposite operator="in" in2="blur-2"/>
      <feComposite in="SourceGraphic"/>
    </filter>
  </defs>
  <g id="Сгруппировать_11465" data-name="Сгруппировать 11465" transform="translate(-3527 1338.752)">
    <g id="Группа_масок_10" data-name="Группа масок 10" transform="translate(3527 -1338.219)" clip-path="url(#clip-path)">
      <rect id="Прямоугольник_5960" data-name="Прямоугольник 5960" width="50.061" height="50.061" transform="translate(0.389 0.13)" fill="none"/>
      <g id="Сгруппировать_11464" data-name="Сгруппировать 11464" transform="translate(-21.453 12.609) rotate(-30)">
        <g transform="matrix(0.87, 0.5, -0.5, 0.87, 25.15, -0.65)" filter="url(#Контур_10388)">
          <path id="Контур_10388-2" data-name="Контур 10388" d="M12.192,0A13.74,13.74,0,0,0,26.444,8.417a13.859,13.859,0,0,0,6.773-2.744L45.877,9.158A25.488,25.488,0,0,1,26.454,20.19,25.356,25.356,0,0,1,7.172,13.074,25.5,25.5,0,0,1,0,.123Z" transform="translate(1.6 18.17) rotate(29.55)" stroke="rgba(0,0,0,0)" stroke-width="1.013" fill="url(#radial-gradient)"/>
        </g>
        <g transform="matrix(0.87, 0.5, -0.5, 0.87, 25.15, -0.65)" filter="url(#Контур_10389)">
          <path id="Контур_10389-2" data-name="Контур 10389" d="M13.436,30.634l-12.9.129A29.143,29.143,0,0,1,0,25.511,25.068,25.068,0,0,1,7.561,7.37,25.375,25.375,0,0,1,50.818,25.5a27.745,27.745,0,0,1-.484,5Zm-.961-9.741,25.9.076A13.634,13.634,0,0,0,33.3,14.215a13.71,13.71,0,0,0-20.824,6.679Z" transform="translate(16.25 -8.62) rotate(29.55)" fill="#7fffd4" stroke="rgba(0,0,0,0)" stroke-width="1.013"/>
        </g>
      </g>
    </g>
    <g id="logo" transform="translate(3592.598 -1338.252)">
      <g id="name">
        <path id="Контур_6308" data-name="Контур 6308" d="M-42.667-33.6a14.93,14.93,0,0,1,11.257,4.728,16.23,16.23,0,0,1,4.517,11.656A16.226,16.226,0,0,1-31.409-5.561,16.346,16.346,0,0,1-34-3.369L-40-1.031a16.5,16.5,0,0,1-2.665.2H-55.68V-33.6ZM-40-1.031-34-3.369-37.176-8.6a8.33,8.33,0,0,0,1.437-1.242,10.314,10.314,0,0,0,2.668-7.372,10.314,10.314,0,0,0-2.669-7.373,9.087,9.087,0,0,0-6.928-2.832H-49.22v20.41h5.678Zm22.52-9.024q1.217,4.4,6.6,4.4A6.175,6.175,0,0,0-5.639-7.995L-.77-5.186Q-4.234-.177-10.975-.177A12.591,12.591,0,0,1-20.29-3.688,11.994,11.994,0,0,1-23.8-12.535a12.1,12.1,0,0,1,3.464-8.824,11.912,11.912,0,0,1,8.892-3.535,11.16,11.16,0,0,1,8.5,3.558A12.351,12.351,0,0,1,.4-12.535a14.136,14.136,0,0,1-.234,2.481Zm-.094-4.681H-5.64a5.662,5.662,0,0,0-2.13-3.558,6.106,6.106,0,0,0-3.675-1.171,6.352,6.352,0,0,0-4.026,1.241,5.926,5.926,0,0,0-2.106,3.487ZM29.843-.832H22.494L16.127-11.505,9.761-.833h-7.3L12.475-17.638,2.973-33.6h7.3l5.852,9.831L21.978-33.6h7.3l-9.5,15.916Zm6.787-9.22q1.217,4.4,6.6,4.4a6.175,6.175,0,0,0,5.243-2.341l4.868,2.809Q49.878-.176,43.138-.176a12.591,12.591,0,0,1-9.315-3.511,11.994,11.994,0,0,1-3.511-8.847,12.1,12.1,0,0,1,3.464-8.824,11.914,11.914,0,0,1,8.892-3.535,11.16,11.16,0,0,1,8.5,3.558,12.352,12.352,0,0,1,3.347,8.8,14.137,14.137,0,0,1-.234,2.481Zm-.094-4.681H48.473a5.662,5.662,0,0,0-2.13-3.558,6.1,6.1,0,0,0-3.675-1.172,6.352,6.352,0,0,0-4.026,1.241,5.926,5.926,0,0,0-2.106,3.487Z" transform="translate(55.68 33.6)" fill="#fff" stroke="rgba(0,0,0,0)" stroke-width="1"/>
        <path id="Контур_9755" data-name="Контур 9755" d="M-36.407-7.188A4.013,4.013,0,0,1-33.345-6a4.453,4.453,0,0,1,1.12,3.19V3.738h-1.409V-2.813a3.076,3.076,0,0,0-.757-2.219,2.834,2.834,0,0,0-2.145-.79,3.357,3.357,0,0,0-2.5.971,4.113,4.113,0,0,0-.96,3V3.738H-41.4V-6.932h1.408v1.665A3.943,3.943,0,0,1-36.407-7.188Zm17.712,0a4.84,4.84,0,0,1,3.831,1.675A5.826,5.826,0,0,1-13.4-1.554q0,.235-.043.662h-9.37a3.829,3.829,0,0,0,1.376,2.571,4.384,4.384,0,0,0,2.87.949,4.2,4.2,0,0,0,2.1-.5A3.383,3.383,0,0,0-15.132.814l1.238.726a5.068,5.068,0,0,1-1.921,1.793,5.712,5.712,0,0,1-2.774.662,5.544,5.544,0,0,1-4.1-1.579A5.432,5.432,0,0,1-24.265-1.6a5.494,5.494,0,0,1,1.558-3.991,5.352,5.352,0,0,1,4.012-1.6Zm0,1.366a4,4,0,0,0-4.119,3.564h7.961a3.978,3.978,0,0,0-1.3-2.625A3.767,3.767,0,0,0-18.7-5.822ZM.041-5.566H-3.032V.9a1.833,1.833,0,0,0,.341,1.248,1.35,1.35,0,0,0,1.025.384Q-.983,2.543.041,2.5V3.738a5.186,5.186,0,0,1-3.361-.32A2.677,2.677,0,0,1-4.44.9V-5.566h-2.24V-6.932H-4.44V-9.493l1.408-.427v2.987H.042ZM21.1-6.932h1.451L19.269,3.738H17.732l-2.753-8.6-2.752,8.6H10.69L7.4-6.932H8.856l2.624,8.857,2.795-8.856h1.408l2.8,8.856ZM39.083,2.383a5.721,5.721,0,0,1-7.96,0A5.37,5.37,0,0,1,29.491-1.6a5.37,5.37,0,0,1,1.632-3.98,5.721,5.721,0,0,1,7.96,0A5.371,5.371,0,0,1,40.716-1.6a5.37,5.37,0,0,1-1.632,3.98ZM32.116,1.4a4.251,4.251,0,0,0,5.975,0,4.1,4.1,0,0,0,1.216-3,4.1,4.1,0,0,0-1.217-3,4.251,4.251,0,0,0-5.975,0,4.1,4.1,0,0,0-1.217,3,4.1,4.1,0,0,0,1.218,3ZM50.341-5.161A3.469,3.469,0,0,1,53.713-7.1v1.366a3.5,3.5,0,0,0-2.413.854,3.421,3.421,0,0,0-.96,2.689V3.738H48.932V-6.932H50.34Zm19.782,8.9H68.245L62.91-1.405V3.738H61.5V-11.2H62.91v8.984l5.078-4.716h1.921L64.4-1.81Z" transform="translate(41.766 46.63)" fill="#7fffd4"/>
      </g>
    </g>
  </g>
</svg>
